PathFileType	4	(X/Y/Z)	C:\Users\WrightLab\Desktop\Jo\P1.2Trial21.trc
DataRate	CameraRate	NumFrames	NumMarkers	Units	OrigDataRate	OrigDataStartFrame	OrigNumFrames
100.00	100.00	       34	19	mm	100.00	83	       660
Frame#	Time	Headset_Front			Headset_Back			Headset_Left			Headset_Right			Left_Shoulder			Right_Shoulder			Sternum			C7			Left Elbow			Right Elbow			Left Wrist			Right Wrist			Left ASIS			Right ASIS			S2			Left Knee			Right Knee			Left Ankle			Right Ankle			
		X1	Y1	Z1	X2	Y2	Z2	X3	Y3	Z3	X4	Y4	Z4	X5	Y5	Z5	X6	Y6	Z6	X7	Y7	Z7	X8	Y8	Z8	X9	Y9	Z9	X10	Y10	Z10	X11	Y11	Z11	X12	Y12	Z12	X13	Y13	Z13	X14	Y14	Z14	X15	Y15	Z15	X16	Y16	Z16	X17	Y17	Z17	X18	Y18	Z18	X19	Y19	Z19	

83	0.820													-170.38254	1192.87061	-1555.87488				-401.83014	1114.46130	-1480.67004										-21.39675	704.66418	-1545.80273				-270.02341	806.08557	-1480.77466							-348.56827	435.78644	-1391.40479				-334.09857	117.82220	-1295.35645				
84	0.830													-172.86493	1190.71436	-1546.04236				-403.81091	1113.54675	-1473.44275										-22.97049	702.82599	-1536.70520				-273.18289	804.69720	-1472.89673							-353.79440	434.08496	-1381.95374				-340.36835	119.91885	-1285.36609				
85	0.840													-174.17159	1189.71643	-1539.18188				-406.26175	1112.69629	-1465.47290										-24.00780	701.85925	-1529.71008				-276.58115	804.92017	-1461.03662							-356.80823	436.74988	-1369.59680				-344.98639	121.43560	-1279.60010				
86	0.850													-176.11450	1187.60901	-1529.52917				-408.57175	1110.52173	-1459.82361										-25.60903	700.32813	-1520.73999				-279.30954	802.04468	-1457.39258							-360.70715	434.77521	-1364.08923				-350.35812	120.97501	-1271.14453				
87	0.860													-178.18153	1186.42651	-1522.01648				-411.12653	1110.21973	-1452.57239										-28.10518	699.09332	-1512.16431				-283.59485	801.44098	-1450.21899							-364.41446	433.08218	-1360.26733				-354.83649	120.14201	-1263.64844				
88	0.870													-179.34351	1184.46631	-1513.32922				-413.52686	1108.33899	-1447.50281										-29.73170	697.22607	-1502.38611				-287.82742	799.88287	-1442.04553							-369.11691	433.51181	-1350.75269				-359.51712	119.77032	-1257.90906				
89	0.880													-181.81215	1182.29980	-1503.69800				-416.05048	1107.08606	-1439.97400										-32.39406	695.39484	-1492.02600				-291.60745	796.42212	-1436.48169							-372.97870	432.16684	-1341.68225				-362.01779	117.56554	-1253.54712				
90	0.890													-183.04985	1181.34753	-1496.81287				-418.09790	1105.95337	-1433.24109										-34.27767	693.20917	-1482.54053				-294.35645	797.09918	-1427.62048							-376.33768	431.51074	-1333.58118				-364.92523	113.71125	-1248.35217				
91	0.900													-184.83128	1179.27637	-1487.16833				-420.49957	1105.50122	-1425.29407										-36.63200	691.95886	-1473.71497				-298.18073	794.78668	-1417.09497							-380.37320	429.90399	-1326.01453				-366.37079	111.26415	-1245.00281				
92	0.910													-186.71323	1178.12549	-1479.62158				-422.39917	1103.65808	-1417.71692										-39.91400	689.22516	-1461.37927				-301.68115	794.84509	-1404.05798							-385.53561	429.98401	-1316.50281				-368.46637	106.75127	-1241.69604				
93	0.920													-187.43716	1176.78674	-1471.64795				-424.49384	1103.66565	-1408.33691										-42.70998	687.11536	-1451.39929				-304.42685	792.55341	-1401.42810							-390.51248	427.24234	-1314.62280				-369.71552	101.96792	-1239.24512				
94	0.930													-189.25858	1174.16394	-1459.97937				-426.20459	1103.07129	-1400.08667										-46.64638	685.26782	-1439.31238				-308.92865	790.96246	-1390.35669							-393.55154	426.62524	-1303.90271				-371.36783	97.20362	-1236.55127				
95	0.940													-190.50833	1174.18762	-1454.12354				-428.09818	1102.84229	-1389.71326										-49.45929	683.74890	-1429.89160				-312.30295	791.27228	-1383.33130							-397.87762	425.03040	-1294.98621				-371.71414	94.01011	-1232.75623				
96	0.950													-191.34195	1172.05957	-1443.25623				-429.30856	1102.95068	-1381.02832										-53.56438	681.56860	-1417.78992				-316.59534	789.40991	-1374.52209							-401.51111	422.22668	-1289.85242				-373.40015	92.64875	-1227.39746				
97	0.960													-193.10950	1172.39319	-1436.88379				-430.39786	1103.23999	-1371.51672										-56.45760	680.21185	-1407.81311				-319.86014	787.76855	-1366.38550							-404.90753	422.24716	-1286.25439				-375.63602	90.55430	-1222.32678				
98	0.970													-193.88956	1169.94629	-1423.81348				-431.89594	1104.66406	-1362.39575										-61.43526	678.23950	-1395.44885				-323.24396	789.99493	-1352.59814							-407.96225	420.49075	-1282.79688				-377.98676	89.63202	-1217.44202				
99	0.980													-194.76918	1170.74011	-1417.62659				-433.65192	1104.84106	-1353.15112										-65.42653	677.20697	-1384.83191				-327.17401	789.51422	-1339.92090							-411.49136	422.17490	-1268.07178				-378.71088	87.85536	-1212.46143				
100	0.990													-196.14989	1169.99695	-1406.61108				-435.64749	1106.68823	-1343.29932										-70.16273	675.89655	-1373.40540				-328.66388	789.85620	-1336.07727							-412.46869	424.85034	-1253.22803				-379.86218	86.43017	-1209.10925				
101	1.000													-197.16840	1170.41736	-1397.65051				-436.71808	1108.90466	-1337.37109										-75.09174	675.11395	-1361.38269				-331.64749	792.69458	-1324.47449							-415.64383	425.10388	-1251.19067				-382.32111	83.26743	-1204.79468				
102	1.010													-198.34167	1171.81641	-1389.82129	-128.56383	887.15961	-1460.60474	-438.37894	1109.94031	-1328.75769							-579.19495	791.46362	-1423.62195	-80.28300	674.73285	-1350.60962				-335.13794	794.43939	-1310.04016							-417.96667	425.38913	-1245.30090				-383.71817	80.30936	-1200.11768				
103	1.020													-199.85056	1173.00903	-1380.32813	-131.87560	888.21832	-1451.44800	-439.29471	1111.32971	-1322.65674							-580.68390	794.86877	-1417.15125	-84.75120	674.98743	-1340.65295				-336.81937	796.27087	-1303.18958							-420.14737	425.05200	-1237.70483				-384.32083	77.50190	-1196.13086				
104	1.030													-200.42555	1173.69556	-1369.22363	-135.99712	888.41058	-1440.24512	-441.00058	1114.93372	-1311.12683	-339.02792	857.27612	-1593.57666				-583.26703	798.08044	-1404.70459	-89.48196	674.67133	-1329.55298	-741.19446	690.01624	-1497.29114	-339.16000	799.17310	-1293.68677							-421.96417	425.68192	-1228.46912				-384.89737	75.64548	-1194.15625				
105	1.040													-202.60193	1176.09399	-1361.21313	-138.66005	889.80316	-1431.27319	-441.88388	1118.84802	-1301.70618	-341.94748	858.73718	-1583.00623				-585.47064	801.23688	-1393.98267	-95.91279	676.71393	-1317.91968	-743.03076	693.75769	-1488.18372	-341.93488	802.86102	-1282.38525							-423.98746	430.52469	-1209.17969				-385.64401	73.53530	-1191.64172				
106	1.050	-466.48334	1343.94824	-1184.87878										-203.47728	1178.30432	-1352.80542	-142.80791	891.61938	-1421.38867	-443.19931	1121.78503	-1288.92236	-344.74960	860.51215	-1573.13562				-588.61627	805.56628	-1378.51074	-101.33482	677.62970	-1307.13989	-744.86731	697.26001	-1478.36230	-343.45023	804.84064	-1276.26245							-425.62424	429.18954	-1206.28711				-385.56711	70.00340	-1190.39246				
107	1.060	-467.66302	1345.28015	-1175.90869										-204.84723	1179.78979	-1342.11658	-146.06818	892.59271	-1410.91406	-443.93439	1124.85303	-1281.64709	-347.26712	862.66705	-1563.40137				-589.45502	807.95917	-1373.28992	-106.19380	679.49750	-1297.80591	-746.79633	700.55994	-1468.15979	-346.70041	808.57678	-1263.23157							-425.79459	429.87326	-1196.71313	-556.07013	366.74274	-1483.15503	-386.58170	68.89090	-1188.21411				
108	1.070	-468.19955	1346.73743	-1167.44019	-622.55420	1205.78125	-1426.05994							-206.40453	1183.04932	-1335.78271	-149.31677	894.04944	-1401.04980	-445.14108	1128.97644	-1274.02429	-349.56726	864.39954	-1553.15039				-591.41467	811.29486	-1362.62732	-112.59998	681.10236	-1286.41394	-748.68921	703.67285	-1457.72522	-348.85278	812.29041	-1253.22986							-425.36499	430.52585	-1187.00562	-561.73688	369.70688	-1472.65442	-385.59705	69.03586	-1186.57043				
109	1.080													-207.60167	1184.79419	-1326.10889	-152.36409	896.43994	-1391.96887	-447.24783	1134.05786	-1261.36389	-351.73849	866.17926	-1543.37354				-594.32086	816.43866	-1347.24194	-117.73921	683.02203	-1275.55750				-349.83063	813.70251	-1247.06567							-424.94464	431.98911	-1175.96680	-567.96100	371.86011	-1460.73108	-385.13986	67.52109	-1185.72998				
110	1.090													-209.15862	1187.07104	-1318.01440	-157.21199	897.65399	-1379.21350	-448.30807	1136.36096	-1254.65784	-353.62384	867.12354	-1532.24475				-595.07050	818.85455	-1341.70081	-123.45921	684.45648	-1264.75146				-352.52307	818.07513	-1232.02466							-423.61417	431.29846	-1172.76477	-576.62360	375.61774	-1444.97498	-384.27670	65.43633	-1184.65381				
111	1.100													-210.35606	1188.83350	-1309.37634	-159.26900	899.22272	-1370.52356	-450.84668	1139.70276	-1243.14856	-355.33398	868.82721	-1523.02441				-597.04803	821.72455	-1331.19043	-128.83781	686.76471	-1254.08069				-354.22156	821.85803	-1216.04395							-422.16101	431.09302	-1169.29712	-586.99890	379.13470	-1429.62085	-384.85391	63.91148	-1183.49231				
112	1.110													-212.36607	1190.58203	-1300.86865	-161.35059	900.38666	-1361.61255	-452.09216	1140.88708	-1237.97424	-356.81894	869.68445	-1512.83142				-599.05750	824.48401	-1320.85999	-133.23106	688.19037	-1243.97681				-355.23764	823.86609	-1207.89319							-420.01517	426.30969	-1172.54211	-598.25201	382.61743	-1420.63354	-385.10669	62.56866	-1183.16650				
113	1.120													-213.73257	1192.11621	-1292.65063	-164.93959	902.04907	-1350.64954	-454.17361	1143.65918	-1229.59485	-358.30624	870.17480	-1503.09839				-599.99347	825.63770	-1315.22058	-139.13278	689.45276	-1231.11682	-760.29816	718.67749	-1408.55847	-357.87228	826.46368	-1194.15247							-418.52399	429.30319	-1154.56689	-609.68481	383.05069	-1408.01489	-385.55557	61.93348	-1184.01038				
114	1.130													-216.05864	1194.65540	-1286.80457	-167.09100	901.99414	-1340.24951	-456.49744	1145.74133	-1220.60352	-359.55182	870.52411	-1493.27185				-602.71216	829.02472	-1301.73865	-142.49504	690.77094	-1221.74951	-763.10535	720.99176	-1399.03186	-359.56210	828.20569	-1187.30884							-415.67966	427.81476	-1151.81262	-621.85968	383.49020	-1392.33899	-385.82050	61.34047	-1184.22388				
115	1.140	-475.70178	1352.45337	-1112.77551	-631.47479	1221.67554	-1378.15747							-217.65834	1195.13098	-1276.55090	-169.40874	903.46033	-1330.47168	-457.61600	1147.33655	-1216.67358	-360.91797	871.37274	-1485.46069				-604.21124	829.11072	-1295.18799	-147.40613	691.82629	-1209.34375	-766.06958	722.75623	-1389.09619	-362.30139	830.90826	-1177.57410							-413.55301	425.82852	-1151.54089	-632.15143	387.55289	-1374.92175	-385.72055	59.89045	-1184.30994				
116	1.150	-475.03708	1354.04260	-1104.70703										-219.70702	1196.50049	-1268.81860	-171.33328	903.82269	-1319.53040	-460.73883	1149.37500	-1206.79321	-362.01633	871.93713	-1476.51917				-606.47705	830.93518	-1284.34595	-150.74153	693.38318	-1197.89270	-769.01587	724.13763	-1378.96790	-364.60007	830.36243	-1167.37524							-409.75568	425.58057	-1148.31274	-641.33173	387.98428	-1357.27356	-385.16809	58.64477	-1185.39819				
